<svg width="120" height="120" viewBox="0 0 120 120" fill="none" xmlns="http://www.w3.org/2000/svg">
<path d="M86.3157 101C99.4439 100.731 110 89.945 110 76.6847C110 70.2359 107.451 64.0512 102.915 59.4912L62.6316 19V44.1681C62.6316 48.3771 64.2951 52.414 67.2563 55.3904L76.6929 64.8757L76.7186 64.9009L92.5412 80.8054C93.0551 81.3218 93.0551 82.1593 92.5412 82.6757C92.0276 83.1923 91.1943 83.1923 90.6806 82.6757L85.2265 77.1936H34.7735L29.3195 82.6757C28.8056 83.1923 27.9725 83.1923 27.4587 82.6757C26.9448 82.1593 26.9448 81.3218 27.4587 80.8054L43.2814 64.9009L43.3071 64.8757L52.7437 55.3904C55.7049 52.414 57.3684 48.3771 57.3684 44.1681V19L17.0852 59.4912C12.5486 64.0512 10 70.2359 10 76.6847C10 89.945 20.5562 100.731 33.6843 101H86.3157Z" fill="white"/>
</svg>
