<svg width="376" height="72" viewBox="0 0 376 72" fill="none" xmlns="http://www.w3.org/2000/svg">
<path d="M102.747 57V19.176H89.6908V12.2H124.059V19.176H110.939V57H102.747ZM128.349 57V12.2H136.477V28.968C137.586 27.4747 139.058 26.3653 140.893 25.64C142.77 24.872 144.647 24.488 146.525 24.488C150.194 24.488 153.202 25.6827 155.549 28.072C157.895 30.4187 159.069 33.832 159.069 38.312V57H150.941V39.4C150.941 37.0107 150.322 35.0907 149.085 33.64C147.89 32.1467 146.119 31.4 143.773 31.4C141.426 31.4 139.613 32.1467 138.333 33.64C137.095 35.0907 136.477 37.0107 136.477 39.4V57H128.349ZM176.702 57.768C173.972 57.768 171.646 57.192 169.726 56.04C167.806 54.8453 166.334 53.224 165.31 51.176C164.286 49.0853 163.774 46.7173 163.774 44.072V25.256H171.902V42.856C171.902 45.2027 172.5 47.1227 173.694 48.616C174.932 50.1093 176.724 50.856 179.07 50.856C181.502 50.856 183.316 50.1307 184.51 48.68C185.705 47.2293 186.302 45.288 186.302 42.856V25.256H194.494V57H186.302V53.288C185.236 54.7387 183.828 55.848 182.078 56.616C180.372 57.384 178.58 57.768 176.702 57.768ZM200.224 57V25.256H208.352V28.904C209.418 27.4107 210.784 26.3013 212.448 25.576C214.112 24.8507 215.861 24.488 217.696 24.488C220.085 24.488 222.304 25 224.352 26.024C226.442 27.0053 228.064 28.5627 229.216 30.696C230.282 28.7333 231.754 27.2187 233.632 26.152C235.552 25.0427 237.642 24.488 239.904 24.488C242.336 24.488 244.533 25 246.496 26.024C248.501 27.0053 250.08 28.52 251.232 30.568C252.384 32.616 252.96 35.176 252.96 38.248V57H244.832V39.4C244.832 37.0107 244.256 35.112 243.104 33.704C241.952 32.296 240.181 31.592 237.792 31.592C235.445 31.592 233.674 32.296 232.48 33.704C231.285 35.112 230.688 37.0107 230.688 39.4V57H222.56V39.4C222.56 36.968 221.941 35.0693 220.704 33.704C219.509 32.296 217.781 31.592 215.52 31.592C213.6 31.592 211.914 32.2107 210.464 33.448C209.056 34.6427 208.352 36.6267 208.352 39.4V57H200.224ZM277.04 57.768C274.906 57.768 272.901 57.3627 271.024 56.552C269.189 55.6987 267.653 54.3973 266.416 52.648V57H258.224V12.2H266.352V29.736C267.546 27.9867 269.082 26.6853 270.96 25.832C272.837 24.936 274.864 24.488 277.04 24.488C280.069 24.488 282.672 25.2347 284.848 26.728C287.066 28.1787 288.773 30.1627 289.968 32.68C291.162 35.1547 291.76 37.928 291.76 41C291.76 44.0293 291.162 46.824 289.968 49.384C288.773 51.944 287.066 53.992 284.848 55.528C282.672 57.0213 280.069 57.768 277.04 57.768ZM274.864 50.6C276.57 50.6 278.064 50.1733 279.344 49.32C280.624 48.4667 281.626 47.3147 282.352 45.864C283.077 44.3707 283.44 42.7493 283.44 41C283.44 38.9947 283.034 37.3093 282.224 35.944C281.456 34.536 280.41 33.4693 279.088 32.744C277.808 32.0187 276.4 31.656 274.864 31.656C273.2 31.656 271.728 32.0613 270.448 32.872C269.21 33.6827 268.229 34.8133 267.504 36.264C266.778 37.672 266.416 39.2933 266.416 41.128C266.416 43.0053 266.778 44.6693 267.504 46.12C268.272 47.528 269.296 48.6373 270.576 49.448C271.856 50.216 273.285 50.6 274.864 50.6ZM296.161 57V12.2H304.353V57H296.161ZM314.577 21.16C313.127 21.16 311.868 20.648 310.801 19.624C309.777 18.5573 309.265 17.2987 309.265 15.848C309.265 14.3547 309.777 13.096 310.801 12.072C311.868 11.048 313.127 10.536 314.577 10.536C316.071 10.536 317.329 11.048 318.353 12.072C319.377 13.096 319.889 14.3547 319.889 15.848C319.889 17.2987 319.377 18.5573 318.353 19.624C317.329 20.648 316.071 21.16 314.577 21.16ZM310.481 57V25.256H318.673V57H310.481ZM325.493 57V32.104H321.781V25.256H325.493V22.824C325.493 18.984 326.453 16.2533 328.373 14.632C330.336 13.0107 332.981 12.2 336.309 12.2H338.997V19.176H337.589C336.181 19.176 335.179 19.4533 334.581 20.008C333.984 20.5627 333.685 21.5013 333.685 22.824V25.256H339.381V32.104H333.685V57H325.493ZM347.355 71.08L354.331 55.528L341.467 25.256H350.619L358.811 46.888L367.195 25.256H375.835L355.995 71.08H347.355Z" fill="white"/>
<g clip-path="url(#clip0_8993_1015)">
<path d="M54.1842 64C63.5052 63.8099 71 56.1806 71 46.8014C71 42.24 69.1905 37.8655 65.9694 34.6401L37.3685 6V23.8018C37.3685 26.7789 38.5495 29.6343 40.652 31.7395L47.3519 38.4487L47.3702 38.4665L58.6043 49.7161C58.9691 50.0813 58.9691 50.6736 58.6043 51.0389C58.2396 51.4043 57.6479 51.4043 57.2832 51.0389L53.4108 47.1613H17.5892L13.7168 51.0389C13.352 51.4043 12.7605 51.4043 12.3957 51.0389C12.0308 50.6736 12.0308 50.0813 12.3957 49.7161L23.6298 38.4665L23.6481 38.4487L30.348 31.7395C32.4505 29.6343 33.6315 26.7789 33.6315 23.8018V6L5.0305 34.6401C1.80951 37.8655 0 42.24 0 46.8014C0 56.1806 7.49488 63.8099 16.8158 64H54.1842Z" fill="white"/>
</g>
<defs>
<clipPath id="clip0_8993_1015">
<rect width="71" height="58" fill="white" transform="translate(0 6)"/>
</clipPath>
</defs>
</svg>
